
<svg xmlns="http://www.w3.org/2000/svg" xmlns:xlink="http://www.w3.org/1999/xlink" id="Layer_1" x="0" y="0" version="1.1" viewBox="0 0 844 820.4" xml:space="preserve"><style>.st0{fill:#f6f3f0}</style><g><path d="M677.1 727.5l-.7.5M76.3 184.1l.5-.7M645.6 751.1l-.7.5M55.9 217.9l.4-.7M186.6 73.3l.7-.4M167.6 477.2l-.3-.8M25.5 534.7l-.2-.8M305.5 644.1l-.7-.4M403.7 668.8l-.8-.1M226.5 585.5l-.5-.6M328.6 653.8l-.8-.3M15.4 495.5l-.2-.8M538.6 802.8l-.8.2M9.1 454.9l-.1-.8M430.1 668.7h-.8M283.6 632.3l-.7-.4M221.8 772.4l-.7-.4M56.7 608l-.4-.7M334.4 813.3l-.8-.2M25 291.3l.3-.8M188 752l-.7-.4M167.1 348.8l.2-.8M528.2 643.4l-.7.4M15 330.6l.2-.8M611.9 771.7l-.7.3M550 631.5l-.7.4M156.4 728.5l-.6-.5M159.6 399v.8M505.2 653.2l-.8.3M576.2 789l-.8.3M159.6 426.2v-.8M8.9 371.2l.1-.8M295.2 803.3l-.8-.3M339.2 272.6l1.2-.7.7-.4-.4-.7c-30-55.1-69.4-127.4-118.9-218.8l-1.5.8c49.6 91.4 88.7 163.8 118.5 219.1l.4.7zM362 261.4c-10-27.1-21.2-57.4-33.4-90.7l-1.5.6c12.2 33.3 23.2 63.7 33.1 90.8l.3.8 1.1-.4.8-.3-.4-.8zM377 256.8c-7.3-27.9-15.5-59.2-24.3-93.6l-1.6.4c8.9 34.4 16.9 65.7 24 93.6l.2.8 1.1-.3.8-.2-.2-.7zM636.2 544.7l-.4.7M552.9 494l-.6 1-.4.7.7.4c24.7 14.9 52.4 31.6 82.7 50l.9-1.4c-30.3-18.4-57.9-35.2-82.6-50.3l-.7-.4zM293.6 21.6l.8-.2M367.7 260.3l1.3-.4.8-.2-.2-.8c-18.8-59.9-43.4-138.5-74.3-237.7l-1.6.5c30.9 99.3 55.2 177.9 73.8 237.9l.2.7zM332.8 11.5l.8-.2M382.9 256.3l1.4-.3.8-.2-.2-.8c-12.8-61.5-29.5-142-50.5-243.9l-1.6.3c20.9 101.9 37.4 182.5 49.9 244l.2.9zM347.5 267.4c-12.6-26-26.7-55.1-42-87l-1.5.7c15.4 32 29.3 61.1 41.8 87.2l.3.7 1.1-.5.7-.4-.4-.7zM353.1 265.8l1.3-.5.8-.3-.3-.8c-24.6-57.8-56.7-133.6-97.2-229.3l-1.5.6c40.5 95.8 72.4 171.7 96.7 229.5l.2.8zM543.7 507.7l-.5.7.7.5c23.2 17.2 49.1 36.5 77.5 57.7l1-1.3c-28.4-21.2-54.3-40.6-77.3-58l-.7-.5-.7.9zM548.9 500.4l-.8 1.1-.5.7.7.5c52.1 35 120.4 80.9 206.6 139l.9-1.4C669.6 582.2 601.4 536 549.5 500.8l-.6-.4zM433.5 253.8l.1-.8c6.3-62.5 14.5-144.3 25.2-247.8l-1.7-.2c-10.6 103.4-19.2 185.3-25.7 247.7l-.1.8 1.4.1.8.2zM559.7 481.5l-.4.7.8.4c26.1 12.4 55.2 26.4 87.2 41.7l.7-1.5c-32-15.4-61.1-29.5-87-42.1l-.7-.3-.6 1.1zM376.2 158.5l.8-.2M390.9 254.8l1.2-.2.8-.1-.1-.8c-4.5-28.5-9.5-60.4-14.9-95.5l-1.6.3c5.4 35 10.2 67 14.5 95.5l.1.8zM272.1 341.9c-26.1-12.4-55.2-26.4-87.2-41.7l-.7 1.5c32 15.4 61.1 29.5 87 42.1l.7.4.5-1.1.4-.7-.7-.5zM428.5 155.7h.8M423.3 252.2v.8l1.2.1h.8v-.8c1.4-28.8 3-61.1 4.8-96.5l-1.7-.1c-1.7 35.4-3.5 67.6-5.1 96.5M776.3 606.6l-.4.7M556.8 487.2l-.7 1.2-.4.7.7.4c55.2 29.8 127.7 68.9 219.1 118.4l.8-1.4c-91.4-49.5-163.7-88.9-218.8-118.9l-.7-.4zM375.1 5l-1.6.2c10.6 103.4 18.9 185.3 25.2 247.8l.1.8 1.4-.1.8-.1-.1-.8c-6.6-62.5-15.2-144.3-25.8-247.8M402.9 155.7h-.8M403.7 155.7l-1.6.1c1.8 35.4 3.4 67.7 4.8 96.5v.8l1.2-.1h.8v-.8c-1.6-28.9-3.3-61.1-5.2-96.5M589.4 601.8l-.6.5M524 529.5l-.9.8-.6.6.6.6c19.5 21.3 41.3 45.2 65.1 71.4l1.2-1.1c-23.8-26.2-45.5-50.2-64.9-71.6l-.5-.7zM511.3 540l-.7.5.5.7c17.3 23.1 36.7 48.9 58 77.3l1.3-1c-21.2-28.4-40.5-54.4-57.7-77.5l-.5-.7-.9.7zM288.3 315.6c-23.2-17.2-49.1-36.5-77.5-57.7l-1 1.3c28.4 21.2 54.3 40.6 77.3 58l.7.5.7-.9.5-.7-.7-.5zM292.4 311.7l.9-1.1.5-.6-.6-.5c-48.5-39.8-112.1-92.1-192.3-158.2l-1.1 1.3c80.2 66.1 143.6 118.6 192 158.6l.6.5zM518.3 534.5l-1.1.9-.6.5.5.6c40 48.3 92.5 111.8 158.6 192l1.3-1.1c-66.1-80.2-118.4-143.8-158.2-192.3l-.5-.6zM279.6 328.3c-24.7-14.9-52.4-31.6-82.7-50l-.9 1.4c30.3 18.4 57.9 35.2 82.6 50.3l.7.4.6-1 .4-.7-.7-.4zM539.8 512.8l-.9 1.1-.5.6.6.5c48.5 39.8 112.1 92.1 192.3 158.2l1.1-1.3c-80.2-66.1-143.6-118.6-192-158.6l-.6-.5zM283.3 324l.8-1.1.5-.7-.7-.5c-52.1-35-120.4-80.9-206.6-139l-.9 1.4c86.2 58.1 154.4 104.3 206.3 139.5l.6.4zM506.1 543.8l-1.1.8-.7.5.5.7c35.2 52 81.3 120.1 139.5 206.3l1.4-.9c-58.1-86.2-104-154.5-139-206.6l-.6-.8zM298.2 303.8c-21.4-19.3-45.4-41-71.6-64.9l-1.1 1.2c26.2 23.8 50.1 45.6 71.4 65.1l.6.6.8-.9.6-.6-.7-.5zM275.4 337.2l.6-1.2.4-.7-.7-.4c-55.2-29.8-127.6-68.9-219-118.5l-.8 1.5c91.4 49.5 163.7 88.9 218.8 118.9l.7.4zM326.1 280.7l1.1-.8.7-.5-.5-.7c-35.2-52-81.3-120.1-139.5-206.3l-1.4.9c58.1 86.2 104 154.5 139 206.6l.6.8zM302.6 300.3l1-1 .6-.6-.6-.6c-44.5-44.3-102.8-102.4-176.3-175.9l-1.2 1.2C199.7 197 257.8 255.2 302 299.7l.6.6zM242.8 222.6l.6-.5M309.1 293c-19.5-21.3-41.3-45.2-65.1-71.4l-1.2 1.1c23.8 26.3 45.5 50.2 64.9 71.7l.5.6.9-.8.6-.6-.6-.6zM333.9 274.7c-15.1-24.6-31.9-52.2-50.3-82.6l-1.4.9c18.4 30.3 35.1 58 50 82.7l.4.7 1-.6.7-.4-.4-.7zM534 519.5l-.6.6.6.6c21.4 19.3 45.4 41 71.7 64.8l1.1-1.2c-26.2-23.8-50.1-45.6-71.4-65.1l-.6-.6-.8.9zM454.4 158.2l.8.1M454.4 158.2c-5.4 35-10.4 67-14.9 95.5l-.1.8 1.2.2.8.1.1-.8c4.3-28.5 9.1-60.5 14.5-95.5l-1.6-.3zM313.9 289.9l1.1-.9.6-.5-.5-.6c-40-48.4-92.5-111.8-158.6-192l-1.3 1c66.1 80.2 118.4 143.8 158.2 192.3l.5.7zM261.8 206.9l.6-.5M321 283.2c-17.3-23.1-36.7-48.9-58-77.3l-1.3 1c21.2 28.4 40.5 54.4 57.7 77.5l.5.7.9-.7.7-.5-.5-.7zM563.4 473.2l-.5 1.3-.3.8.8.3c57.9 24.3 133.8 56.2 229.5 96.7l.6-1.5c-95.8-40.5-171.6-72.6-229.3-97.2l-.8-.4zM775.5 216.4l.4.8M555.7 335.3l.7 1.2.4.7.7-.4c55.1-30 127.4-69.4 218.8-118.9l-.8-1.4c-91.4 49.5-163.8 88.6-219.1 118.4l-.7.4zM635.4 278.3c-30.3 18.4-58 35.1-82.7 50l-.7.4.6 1 .4.7.7-.4c24.6-15.1 52.2-31.9 82.6-50.3l-.9-1.4zM672.6 398.2v.8M672.7 399.8l-.1-1.6c-35.4 1.8-67.7 3.4-96.5 4.8h-.8l.1 1.2v.8h.8c28.8-1.6 61.1-3.3 96.5-5.2M497.8 11.2l.8.1M447.1 255.8l1.4.3.8.2.2-.8c12.5-61.5 29-142.2 49.9-244l-1.6-.3c-21 101.8-37.7 182.4-50.5 243.9l-.2.7zM755 182.7l.4.7M547.7 322.2l.8 1.1.5.7.7-.5c52-35.2 120.1-81.3 206.3-139.5l-.9-1.4c-86.2 58.1-154.5 104-206.6 139l-.8.6zM605.7 238.9c-26.2 23.8-50.2 45.5-71.6 64.9l-.6.6.8.9.6.6.6-.6c21.3-19.5 45.2-41.3 71.4-65.1l-1.2-1.3zM621.4 257.9c-28.4 21.2-54.4 40.5-77.5 57.7l-.7.5.7.9.5.7.7-.5c23.1-17.3 48.9-36.7 77.3-57.9l-1-1.4zM731.4 151.3l.5.6M538.4 310l.9 1.1.5.6.6-.5c48.4-40 111.8-92.5 192-158.6l-1-1.3C651.2 217.4 587.5 269.6 539 309.5l-.6.5zM672.7 424.6l-.1.8M575.3 419.4l-.1 1.2v.8h.8c28.8 1.4 61.1 3 96.5 4.8l.1-1.6c-35.4-1.8-67.7-3.6-96.5-5.1l-.8-.1zM574.6 394.8l.1 1.4.1.8.8-.1c62.4-6.6 144.3-15.1 247.7-25.7l-.2-1.6c-103.4 10.6-185.3 18.9-247.8 25.2h-.7zM816.9 328.9l.1.8M572 379l.3 1.4.2.8.8-.2c61.5-12.8 142-29.5 243.9-50.5l-.3-1.6c-101.8 21-182.5 37.4-244 49.9l-.9.2zM568 363.8l.4 1.3.2.8.8-.3c59.9-18.8 138.5-43.4 237.7-74.3l-.5-1.6c-99.3 30.9-177.9 55.2-237.9 73.8l-.7.3zM657.1 323.1c-33.3 12.2-63.7 23.2-90.8 33.1l-.8.3.4 1.1.3.8.8-.3c27.1-10 57.4-21.2 90.7-33.4l-.6-1.6zM664.7 347.2l.2.8M664.7 347.2c-34.3 8.9-65.7 16.9-93.6 24l-.8.2.3 1.1.2.8.8-.2c27.9-7.3 59.2-15.5 93.6-24.3l-.5-1.6zM562.5 349.2l.5 1.3.3.8.8-.3c57.8-24.6 133.5-56.7 229.3-97.2l-.6-1.5C697 292.8 621.1 324.7 563.2 349l-.7.2zM670.1 373.9l-.2-1.6c-35 5.4-67 10.2-95.6 14.5l-.8.1.2 1.2.1.8.8-.1c28.5-4.5 60.5-9.5 95.5-14.9M647.3 300.1c-32 15.4-61.1 29.3-87.2 41.7l-.7.4.5 1 .4.8.7-.4c26-12.6 55.1-26.7 87-42.1l-.7-1.4zM574.8 427.4l-.1 1.4-.1.8.8.1c62.5 6.3 144.3 14.5 247.8 25.2l.2-1.6C719.9 442.6 638 434 575.6 427.5l-.8-.1zM528 298.7l1 1 .6.6.6-.6c44.3-44.5 102.4-102.8 175.9-176.3l-1.2-1.2c-73.5 73.5-131.8 131.6-176.3 175.9l-.6.6zM807.2 533.1l-.3.8M568.7 458.6l-.4 1.3-.2.8.8.2c60 18.5 138.6 42.9 237.9 73.8l.5-1.6c-99.3-30.9-177.8-55.5-237.7-74.3l-.9-.2zM588.2 221.5l.6.6M588.2 221.5c-23.8 26.3-45.6 50.1-65.1 71.4l-.5.6.9.8.6.5.5-.6c19.3-21.4 41-45.4 64.9-71.6l-1.3-1.1zM503.6 170.7l.8.2M503.6 170.7c-12.2 33.3-23.4 63.6-33.4 90.7l-.3.8 1.1.4.8.3.3-.8c9.8-27.1 20.9-57.5 33.1-90.8l-1.6-.6zM477.1 264.9l1.3.5.8.3.3-.8c24.3-57.9 56.2-133.8 96.7-229.5l-1.5-.6c-40.5 95.8-72.6 171.6-97.2 229.3l-.4.8zM526.7 180.3c-15.4 32-29.4 61.1-42 87l-.4.8 1 .5.8.4.3-.8c12.4-26.1 26.4-55.2 41.8-87.2l-1.5-.7zM565.8 467.2l-.3.8.8.3c27.1 9.8 57.5 20.9 90.8 33.1l.6-1.6c-33.3-12.2-63.6-23.4-90.7-33.4l-.8-.3-.4 1.1zM537 21.2l.8.2M462.5 259.7l1.3.4.8.2.2-.8c18.5-60 42.9-138.6 73.8-237.9l-1.6-.5c-30.9 99.3-55.5 177.8-74.3 237.7l-.2.9zM415.3 3c0 104-.2 186.2-.3 249v.8h2.2v-.8c-.1-62.8-.3-145.1-.3-249h-1.6zM479.5 163.2c-8.9 34.3-17 65.6-24.3 93.6l-.2.8 1.1.3.8.2.2-.8c7.1-28 15.1-59.3 24-93.6l-1.6-.5zM576.3 411.1h-.8v2.2h.8c62.8-.1 145.1-.3 249-.3v-1.6c-103.9 0-186.2-.2-249-.3M569.1 205.9l.7.5M569.1 205.9c-21.2 28.4-40.6 54.3-58 77.3l-.5.6.9.7.7.5.5-.7c17.2-23.2 36.5-49.1 57.7-77.5l-1.3-.9zM665.1 475.6l-.2.8M570.7 451.1l-.3 1.1-.2.8.8.2c28 7.1 59.3 15.1 93.6 24l.4-1.6c-34.3-8.9-65.6-17-93.6-24.3l-.7-.2zM573.5 437.5l.8.1c28.5 4.3 60.5 9.2 95.5 14.5l.2-1.6c-35-5.4-67-10.4-95.5-14.9l-.8-.1-.2 1.2v.8zM516.6 288.5l1.1.9.6.5.5-.6C558.6 240.8 610.9 177.2 677 97l-1.3-1c-66.1 80.2-118.6 143.6-158.6 192l-.5.5zM644.2 72.4l.7.5M504.3 279.4l1.1.8.7.5.5-.7c35-52.1 80.9-120.4 139-206.6l-1.4-.9C586.1 158.6 540 226.8 504.8 278.8l-.5.6zM610.4 52l.8.4M491.1 271.5l1.2.7.7.4.4-.7c29.8-55.2 68.9-127.7 118.4-219.1l-1.4-.8c-49.5 91.4-88.9 163.7-118.9 218.8l-.4.7zM548.6 192.1c-18.4 30.3-35.2 57.9-50.3 82.6l-.4.7 1 .6.7.4.4-.7c14.9-24.7 31.6-52.4 50-82.7l-1.4-.9zM817.2 493.9l-.2.8M572.5 443.3l-.3 1.4-.2.8.8.2c61.5 12.5 142.2 29 244 49.9l.3-1.6c-101.8-20.9-182.4-37.7-243.9-50.5l-.7-.2zM284.6 502.2l-.8-1.1-.5-.7-.7.5c-52 35.2-120.1 81.3-206.3 139.5l.9 1.4c86.2-58.1 154.5-104 206.6-139l.8-.6zM455.8 566.6l-.8.2.2.8c7.3 27.9 15.5 59.2 24.3 93.6l1.6-.4c-8.9-34.3-16.9-65.7-24-93.6l-.2-.8-1.1.2zM304.2 525.7l-1-1-.6-.6-.6.6C257.8 569.2 199.7 627.5 126.2 701l1.2 1.2c73.5-73.5 131.8-131.6 176.3-175.9l.5-.6zM262 453l-.3-1.1-.2-.8-.8.2c-27.9 7.3-59.2 15.5-93.6 24.3l.4 1.6c34.3-8.9 65.7-16.9 93.6-24l.9-.2zM264.2 460.7l-.4-1.3-.2-.8-.8.2c-59.9 18.8-138.5 43.4-237.7 74.3l.5 1.6c99.3-30.9 177.9-55.2 237.9-73.8l.7-.2zM355.1 559.5l-1.3-.5-.8-.3-.3.8c-24.3 57.9-56.2 133.8-96.7 229.6l1.5.6c40.5-95.8 72.6-171.6 97.2-229.3l.4-.9zM347.9 556.3l-1-.5-.8-.4-.4.8c-12.4 26.1-26.4 55.2-41.7 87.2l1.5.7c15.4-32 29.5-61.1 42.1-87l.3-.8zM406.9 571.3v.8c-1.4 28.8-3 61.1-4.8 96.5l1.6.1c1.8-35.4 3.6-67.7 5.1-96.5v-.8l-1.2-.1h-.7zM266.1 466.1l-.8.3c-27.1 10-57.4 21.2-90.7 33.4l.6 1.5c33.3-12.2 63.7-23.2 90.8-33.1l.8-.3-.4-1.1-.3-.7zM298.8 520.1l-.8-.9-.5-.6-.6.6c-21.3 19.5-45.2 41.3-71.4 65.1l1.1 1.2c26.2-23.8 50.2-45.5 71.6-64.8l.6-.6zM362.2 562.3l-1.1-.4-.8-.3-.3.8c-9.8 27.1-20.9 57.5-33.1 90.8l1.5.6c12.2-33.3 23.4-63.6 33.4-90.7l.4-.8zM258.4 435.5l-.8.1c-28.5 4.5-60.5 9.5-95.5 14.9l.2 1.6c35-5.4 67-10.2 95.5-14.5l.8-.1-.2-1.2v-.8zM260.2 445.4l-.3-1.4-.2-.8-.8.2c-61.5 12.8-142 29.5-243.9 50.5l.3 1.6c101.8-21 182.5-37.4 244-49.9l.9-.2zM464.6 564.1l-1.3.4-.8.2.2.8c18.8 59.9 43.4 138.4 74.3 237.7l1.6-.5c-30.9-99.3-55.2-177.9-73.8-237.9l-.2-.7zM257.7 429.6l-.1-1.4-.1-.8-.8.1c-62.4 6.6-144.3 15.1-247.7 25.7l.2 1.6c103.4-10.6 185.3-18.9 247.8-25.2h.7zM293.8 514.5l-.9-1.1-.5-.6-.6.5c-48.4 40-111.8 92.5-192 158.6l1 1.3C181.1 607 244.7 554.8 293.2 515l.6-.5zM433.5 570.7l-1.4.1-.8.1.1.8c6.6 62.4 15.1 144.3 25.7 247.7l1.6-.2c-10.6-103.4-18.9-185.3-25.2-247.8v-.7zM425.3 571.3l-1.2.1-.8.1v.8c1.6 28.8 3.3 61.1 5.1 96.5l1.7-.1c-1.8-35.4-3.4-67.7-4.8-96.5v-.9zM279.3 494l-.7.4c-24.6 15.1-52.2 31.9-82.6 50.3l.9 1.4c30.3-18.4 58-35.1 82.7-50l.7-.4-.6-1-.4-.7zM334.3 549l-1-.6-.7-.4-.4.7c-14.9 24.7-31.6 52.4-50 82.7l1.4.9c18.4-30.3 35.2-57.9 50.3-82.6l.4-.7zM287.8 506.8l-.7.5c-23.1 17.4-48.9 36.7-77.3 58l1 1.3c28.4-21.2 54.4-40.5 77.5-57.7l.7-.5-.7-.9-.5-.7zM449.3 568.1l-1.4.3-.8.2.2.8c12.8 61.5 29.5 142.1 50.5 243.9l1.6-.3c-21-101.8-37.4-182.5-49.9-244l-.2-.9zM269.7 475.3l-.5-1.3-.3-.8-.8.3c-57.8 24.5-133.5 56.7-229.3 97.2l.6 1.5c95.8-40.5 171.7-72.4 229.5-96.7l.8-.2zM341.1 552.9l-1.2-.7-.7-.4-.4.7c-29.8 55.2-68.9 127.7-118.5 219.1l1.5.8c49.5-91.4 88.9-163.7 118.9-218.8l.4-.7zM440.2 569.8l-.8.1.1.8c4.5 28.5 9.5 60.4 14.9 95.5l1.6-.2c-5.4-35-10.2-67-14.5-95.5l-.1-.8-1.2.1zM272 480.4l-.7.4c-26 12.6-55.1 26.7-87 42l.7 1.5c32-15.4 61.1-29.3 87.2-41.7l.7-.4-.5-1-.4-.8zM276.5 489.2l-.7-1.2-.4-.7-.7.4c-55.1 30-127.4 69.4-218.8 118.9l.8 1.4c91.4-49.5 163.8-88.6 219.1-118.4l.7-.4zM385.1 568.6l-1.4-.3-.8-.2-.2.8c-12.5 61.5-29 142.2-49.9 244l1.6.3c21-101.8 37.7-182.4 50.5-243.9l.2-.7zM398.7 570.7l-.1.8c-6.3 62.5-14.5 144.3-25.2 247.8l1.6.2c10.6-103.4 19.2-185.3 25.7-247.7l.1-.8-1.4-.1-.7-.2zM263.6 365.9l.4-1.3.2-.8-.8-.2c-60-18.5-138.6-42.9-237.9-73.8l-.5 1.6c99.3 30.9 177.8 55.5 237.7 74.3l.9.2zM327.9 545l-1.1-.8-.7-.5-.5.7c-35 52.1-80.9 120.4-139 206.6l1.4.9c58.1-86.2 104.3-154.4 139.5-206.3l.4-.6zM261.2 371.2c-28-7.1-59.3-15.1-93.6-24l-.4 1.6c34.3 8.9 65.6 17 93.6 24.3l.8.2.3-1.1.2-.8-.9-.2zM486.1 555.5l-1 .5-.8.4.4.7c12.6 26 26.7 55.1 42 87l1.5-.7c-15.4-32-29.3-61.1-41.7-87.2l-.4-.7zM244 602.9l-.6-.6M309.7 530.9l-.9-.8-.6-.6-.5.6c-19.3 21.4-41 45.4-64.9 71.7l1.2 1.1c23.8-26.3 45.6-50.1 65.1-71.4l.6-.6zM268.8 351.2l.5-1.3.3-.8-.8-.3c-57.9-24.3-133.8-56.2-229.5-96.7l-.6 1.5c95.8 40.5 171.6 72.6 229.3 97.2l.8.4zM259.7 381.2l.3-1.4.2-.8-.8-.2c-61.5-12.5-142.2-29-244-49.9l-.3 1.6C116.9 351.4 197.5 368.2 259 381l.7.2zM390.9 569.6l-.1.8c-4.3 28.5-9.2 60.5-14.5 95.5l1.6.3c5.4-35 10.4-67 14.9-95.5l.1-.8-1.2-.2-.8-.1zM493.1 551.8l-1.2.7-.7.4.4.7c30 55.1 69.4 127.4 118.9 218.8l1.4-.8c-49.5-91.4-88.6-163.8-118.5-219.1l-.3-.7zM499.6 548l-1 .6-.7.4.4.7c15 24.6 31.9 52.2 50.3 82.6l1.4-.9c-18.4-30.3-35.1-58-50-82.7l-.4-.7zM315.6 535.9l-1.1-.9-.6-.5-.5.6c-39.8 48.5-92.1 112.1-158.2 192.3l1.3 1.1c66.1-80.2 118.6-143.6 158.6-192l.5-.6zM266 356.2c-27.1-9.8-57.5-20.9-90.8-33.1l-.6 1.5c33.3 12.2 63.6 23.4 90.7 33.4l.8.3.4-1.1.3-.8-.8-.2zM256.2 403c-28.8-1.4-61.1-3-96.5-4.8l-.1 1.6c35.4 1.8 67.7 3.6 96.5 5.2h.8v-2h-.7zM471.8 561.6l-1.1.4-.8.3.3.8c10 27.1 21.2 57.4 33.4 90.7l1.5-.6c-12.2-33.3-23.2-63.7-33.1-90.8l-.2-.8zM320 539.3l-.5.7c-17.2 23.2-36.5 49.1-57.7 77.5l1.3 1c21.2-28.4 40.6-54.3 58-77.3l.5-.7-.9-.7-.7-.5zM479.2 558.7l-1.3.5-.8.3.3.8c24.6 57.8 56.7 133.5 97.2 229.3l1.5-.6c-40.5-95.8-72.4-171.7-96.7-229.5l-.2-.8zM257 421.4l-.1-1.2v-.8h-.8c-28.8 1.6-61.1 3.3-96.5 5.1l.1 1.6c35.4-1.8 67.7-3.4 96.5-4.8l.8.1zM257.4 397l.1-1.4.1-.8-.8-.1c-62.5-6.3-144.3-14.5-247.8-25.2l-.2 1.6c103.4 10.6 185.3 19.2 247.7 25.7l.9.2zM369.8 564.8l-1.3-.4-.8-.2-.2.8c-18.5 60-42.9 138.6-73.8 237.9l1.6.5c30.9-99.3 55.5-177.8 74.3-237.7l.2-.9zM415.8 571.6h-.8v.8c.1 62.8.3 145.1.3 249h1.6c0-103.9.2-186.2.3-249v-.8H415.8zM257.9 386.8c-28.5-4.3-60.5-9.2-95.5-14.5l-.3 1.6c35 5.4 67 10.4 95.5 14.9l.8.1.2-1.2.1-.8-.8-.1zM375.3 566.3l-.2.8c-7.1 28-15.1 59.3-24 93.6l1.6.4c8.9-34.4 17-65.6 24.3-93.6l.2-.8-1.1-.3-.8-.1zM529.6 524.1l-1 1-.6.6.6.6c44.5 44.3 102.8 102.4 176.3 175.9l1.2-1.2c-73.5-73.5-131.6-131.8-175.9-176.3l-.6-.6zM256.7 413.3v-2.2h-.8c-62.8.1-145.1.3-249 .3v1.6c103.9 0 186.2.2 249 .3h.8z" class="st0"/><path fill="none" d="M-76.9-51.2h951.6v943.5H-76.9z"/></g></svg>